PathFileType	4	(X/Y/Z)	14_2_24_p1_0-184.trc
DataRate	CameraRate	NumFrames	NumMarkers	Units	OrigDataRate	OrigDataStartFrame	OrigNumFrames
60.0	60.0	6	27	m	60.0	92	185
Frame#	Time	RHip			RKnee			RAnkle			RBigToe			RSmallToe			RHeel			LHip			LKnee			LAnkle			LBigToe			LSmallToe			LHeel			Neck			Head			Nose			RShoulder			RElbow			RWrist			RThumb			RIndex			RPinky			LShoulder			LElbow			LWrist			LThumb			LIndex			LPinky			
		X1	Y1	Z1	X2	Y2	Z2	X3	Y3	Z3	X4	Y4	Z4	X5	Y5	Z5	X6	Y6	Z6	X7	Y7	Z7	X8	Y8	Z8	X9	Y9	Z9	X10	Y10	Z10	X11	Y11	Z11	X12	Y12	Z12	X13	Y13	Z13	X14	Y14	Z14	X15	Y15	Z15	X16	Y16	Z16	X17	Y17	Z17	X18	Y18	Z18	X19	Y19	Z19	X20	Y20	Z20	X21	Y21	Z21	X22	Y22	Z22	X23	Y23	Z23	X24	Y24	Z24	X25	Y25	Z25	X26	Y26	Z26	X27	Y27	Z27	
92	1.5333333333333334	0.28968976416785064	0.5671122747284341	0.3058172667319977	0.2822255203318793	0.7233986244186836	0.704729408333985	0.2793248334805172	0.9369491423496096	1.134194672614761	0.26969987765453424	0.718548154390605	1.1599773404448566	0.32774633478629456	0.7410459824345528	1.167647307893043	0.2758380188980583	1.0010987036604853	1.177638016601183	0.06873602798158375	0.605493064024644	0.29424743215752996	0.09621748771915745	0.7529655859649188	0.691692236843054	0.10812495243434002	0.8854987877175157	1.1258148613674952	0.12519703979881125	0.7112180368345329	1.1526809963777596	0.07623749858915208	0.7097068824775358	1.1438967163908715	0.1279567764162626	0.9607106475099222	1.1690435175854892	0.20045175249747021	0.4744364019714412	-0.337281319908382	0.19489670975377088	0.42206067881021087	-0.573059261462867	0.1827582260162533	0.3519621747037332	-0.44240599454936047	0.3585188135773858	0.4484524454007533	-0.2632783006803624	0.5318396948949735	0.27153225945077636	-0.26599009297640286	0.47832013120932726	0.2681597286454116	-0.4664746464675695	0.43167512111967027	0.36567954158095095	-0.5528794979978248	0.44180740469660795	0.32336271757070234	-0.5495357653825119	0.4604273407228537	0.2964687148166539	-0.5379974946269688	0.02726487726556859	0.46943322007232086	-0.2609052198911063	-0.20077549979108228	0.3730719460040135	-0.2809522560095821	-0.13715995321706623	0.29396998786812817	-0.47811308764489824	-0.0720028662580962	0.3901912977839025	-0.5516110017539703	-0.08672816602330262	0.36532953139600266	-0.5972462645135209	-0.11117626282338751	0.328164029710352	-0.5581081222067202
93	1.55	0.2899169198642241	0.5663272641297283	0.30194659379361427	0.2823079381653202	0.7236593551408875	0.7048229517739837	0.28018815823929355	0.9356590003074808	1.1298922614174187	0.2697642029185368	0.7182969719042072	1.1598766394615712	0.3279436346221208	0.7404985501757065	1.1673713729456539	0.2759830844769925	1.0006140903701393	1.1771552550663575	0.06861347707043995	0.6059182392069873	0.29412657147970184	0.09213013692110535	0.7689380555935872	0.6950968763315664	0.10710202075751066	0.8867181514134795	1.1307753708929484	0.12844132338097483	0.7265501308629696	1.1578512994633845	0.08043269534584119	0.693796487508143	1.1381140587130083	0.12432872977531888	0.9457258605990294	1.1685345213560647	0.20452609262248675	0.4748698132511926	-0.3371690237907868	0.19932929608112282	0.42394594926990087	-0.5737672247187846	0.1828140704377064	0.35216683381358493	-0.4424527465657116	0.3584817882979385	0.44780270489390217	-0.2632363073125128	0.5305981185859567	0.2689051873769726	-0.2815154836746358	0.48645820364324244	0.2517754230014345	-0.4817309320887935	0.44463920062993345	0.3307748927512359	-0.5577871999830752	0.4472467059642954	0.3006718317828695	-0.5660916810949514	0.46374291032739157	0.267473950319736	-0.5450145095864557	0.027251413845707027	0.4697911386235605	-0.26090184340302974	-0.2007628686267635	0.3690426216097015	-0.294447906779551	-0.14509094426654878	0.29988206112206495	-0.49255629194630957	-0.08346961608105471	0.37142660271423683	-0.5668930633495566	-0.09030445262297263	0.3508137891761115	-0.6000755106921103	-0.13313228324073137	0.2856047658819805	-0.5690257738045678
94	1.5666666666666667	0.28958197657804	0.567189363163984	0.30576624818706344	0.28244027517919146	0.7231725960693691	0.7087125908772581	0.2801767897349291	0.9358019929538618	1.129826852463704	0.26569635148730314	0.7054141703055846	1.155162492493134	0.32777481788670093	0.7407321539865538	1.167464181418409	0.2759695128775241	1.0009562752592933	1.1773665677380647	0.06861929922891402	0.6062224854726472	0.29413974742098836	0.09140651297383763	0.769912288264157	0.6991343587717592	0.108196235505572	0.8854723436243771	1.1258088974850213	0.12846332434339866	0.7261667739236489	1.1578720756620513	0.07633251433729601	0.709662801736877	1.143803084902843	0.12851374748295935	0.9607667919747421	1.1734362308029616	0.20448762696015874	0.4746170750793558	-0.33738466475621043	0.19934190795247209	0.4229410016333068	-0.5770375416116795	0.18284178166362466	0.35200692904708175	-0.44243496763273205	0.35846840888468634	0.4486015192508461	-0.26333072800215407	0.5289862294583227	0.2642507132640184	-0.30088377545999956	0.4892543949538477	0.22628979587492287	-0.4938393711822624	0.44025441681289834	0.3097216015180589	-0.577564424085884	0.44619116288830624	0.2934109020887046	-0.5930215046202362	0.47894902022456914	0.22437611780193847	-0.5702403037213695	0.027400728433829343	0.4700885156422849	-0.26078369011319774	-0.2008491436761746	0.3675883028986803	-0.2978764428483785	-0.15130990434496083	0.28440423903332285	-0.5025788395932071	-0.09007553077884149	0.3545237599330722	-0.584256873608144	-0.09695953108812329	0.33550819488094275	-0.6035307903149197	-0.13998464063453073	0.2715950508559031	-0.5773974094504496
95	1.5833333333333333	0.289971555353343	0.5665379763624856	0.3019052918793292	0.28224081093881115	0.7235836372443054	0.7048590464524256	0.280194351098606	0.9355693649004566	1.129791455408006	0.26975222275082333	0.7184833463587403	1.15987612144692	0.3279146882865666	0.7409721562258171	1.1675245236990752	0.275939861960133	1.0007261487665597	1.1772331126556657	0.06857798604227733	0.6061737478210286	0.29397369191937184	0.09215542620266537	0.7689307629168574	0.6950046723710075	0.10714850998443504	0.8867547655984367	1.1307025210043469	0.12939819134426514	0.7290172510565911	1.1629958641876827	0.0763536288138958	0.7096193781465727	1.1438222073351276	0.12827541982412888	0.9602363803507444	1.1734250151388963	0.2043547550740633	0.474805006814065	-0.3344368622321572	0.19944299233946264	0.42330338373113413	-0.5782478394978007	0.1861238228949881	0.34031733116431484	-0.4405608708244212	0.35779017555387055	0.4464867863256761	-0.2701853361254728	0.5241015746371661	0.2529415853529502	-0.3038239336137255	0.49890014312270564	0.22248620391412371	-0.5089799178984231	0.44049736576588205	0.28588139909078214	-0.5970794778634555	0.45160232098787284	0.27992821526778777	-0.6064152174781423	0.49449078155300197	0.21002536195038077	-0.5900198716077448	0.027499665737112818	0.4700099995199606	-0.2609105577732348	-0.1967387349109969	0.36887876363373806	-0.30527516981296876	-0.15179542859175107	0.2824846199820589	-0.5094398085276641	-0.08678617339125957	0.3379912832660866	-0.6017638441955496	-0.10343346649142632	0.30918158807887014	-0.6108101094712184	-0.14645801777046594	0.25750404174545855	-0.5840260004349053
96	1.6	0.28971411339398906	0.5637939551750495	0.2939462799859582	0.2839066277068494	0.7247202841363602	0.7044394701920248	0.2757880637428235	0.9192041440053808	1.1245078858098123	0.2700293914372554	0.7189538600171461	1.1595260626797916	0.3287744715248413	0.7411283443087512	1.1671334892338905	0.2719840697658287	0.9837477011720354	1.171397261433535	0.06811377069467069	0.603865123866229	0.289853919239103	0.09625834343081176	0.7531395486998176	0.6917754718785356	0.10711256252532435	0.8867574876453809	1.1308509793222863	0.1252485980991825	0.7104800001842401	1.1524737947699042	0.08040059224736482	0.6933642076662562	1.138524978112974	0.12821001812855354	0.9616127687241659	1.1691548560389864	0.2045317732771776	0.47519147195952866	-0.3341057957881432	0.19892095358316747	0.39944138387064804	-0.5730641535893071	0.18988994032914033	0.3414411753981375	-0.44083002421940665	0.35789747412060147	0.44650498576690967	-0.27027586592669484	0.5230353735230732	0.25023010749901947	-0.3146701187964439	0.49716118939052223	0.20131623602498788	-0.5149732188537935	0.4423540997033657	0.27100516756826637	-0.6071880975435153	0.4524723852261189	0.23248109625698954	-0.6056160695357391	0.4918569959573721	0.1887474803400448	-0.588252716513362	0.031095153520444417	0.4821123736629885	-0.26548429111928246	-0.1873873152762894	0.37949446344019755	-0.31405953863958963	-0.15226808926934499	0.2821490959206766	-0.5129540019512362	-0.0983588730345854	0.3004646106722286	-0.5998734410636871	-0.11742288224558003	0.27081238107005534	-0.6146233699773814	-0.15390194678176947	0.25393577793205396	-0.5891652553455992
97	1.6166666666666667	0.29010258725928134	0.5662522433242704	0.30173389566150255	0.28317364855944677	0.7223195146754529	0.7041982621541121	0.28026424801641425	0.9353886287149994	1.1296217188162099	0.2697477692931875	0.7185993896293813	1.1598783055660342	0.32797135184653264	0.7400648439934526	1.16721362543561	0.27612753467050033	1.0007514891941558	1.1770520010607277	0.06823492469176844	0.6034994167030884	0.290016261413637	0.09217227700380258	0.7689112827903257	0.6951025270514906	0.1071069892325169	0.8867642088699318	1.1307544351187016	0.1285188757557201	0.7254992211567552	1.1578488028467495	0.07630166893083869	0.7094867828096362	1.1441312045032355	0.12809853949772312	0.9613260671559772	1.1691815617701355	0.2047595174054324	0.4752635558489544	-0.3341755427924502	0.1960062964393657	0.41270245058621796	-0.575171989262739	0.189919945726713	0.341377890037705	-0.44083891850645823	0.357882099850156	0.4468622510641688	-0.2704090070994023	0.5165317842787878	0.2518001611825728	-0.3289269604253537	0.5008239598734685	0.19941993353093831	-0.5242035904319045	0.44547736275291083	0.24360927600582027	-0.609307451317044	0.45343787298960864	0.2174379858145375	-0.6133009090188868	0.49654369737072	0.19681297124883454	-0.5997735668227856	0.03117574681436684	0.4823040642456916	-0.2656043789153439	-0.18688780082738418	0.37706269717250984	-0.3237554736796412	-0.1613191311866869	0.30035131356354244	-0.5299416560672865	-0.11026231058466952	0.27651253170417056	-0.6008362800175163	-0.13062630367633565	0.2603543674802628	-0.63982672929116	-0.1602524173948107	0.23815527536523198	-0.596190404496603
